<svg version="1.2" xmlns="http://www.w3.org/2000/svg" viewBox="0 0 900 230" width="900" height="230"><style>.a{fill:#06f}.b{fill:#0052cc}.c{fill:#003f9b}.d{fill:#002c6d}.e{fill:#001a41}</style><path class="a" d="m0 20l21.5 5.5c21.5 5.5 64.5 16.5 107.3 18 42.9 1.5 85.5-6.5 128.4-9.7 42.8-3.1 85.8-1.5 128.6 4.5 42.9 6 85.5 16.4 128.4 19.4 42.8 3 85.8-1.4 128.6-14.9 42.9-13.5 85.5-36.1 128.4-40.8 42.8-4.7 85.8 8.7 107.3 15.3l21.5 6.7v207h-21.5c-21.5 0-64.5 0-107.3 0-42.9 0-85.5 0-128.4 0-42.8 0-85.8 0-128.6 0-42.9 0-85.5 0-128.4 0-42.8 0-85.8 0-128.6 0-42.9 0-85.5 0-128.4 0-42.8 0-85.8 0-107.3 0h-21.5z"/><path class="b" d="m0 24l21.5 5.8c21.5 5.9 64.5 17.5 107.3 25.4 42.9 7.8 85.5 11.8 128.4 11.6 42.8-0.1 85.8-4.5 128.6-0.8 42.9 3.7 85.5 15.3 128.4 20.2 42.8 4.8 85.8 2.8 128.6-7.7 42.9-10.5 85.5-29.5 128.4-39.2 42.8-9.6 85.8-10 107.3-10.1l21.5-0.2v202h-21.5c-21.5 0-64.5 0-107.3 0-42.9 0-85.5 0-128.4 0-42.8 0-85.8 0-128.6 0-42.9 0-85.5 0-128.4 0-42.8 0-85.8 0-128.6 0-42.9 0-85.5 0-128.4 0-42.8 0-85.8 0-107.3 0h-21.5z"/><path class="c" d="m0 101l21.5 3.5c21.5 3.5 64.5 10.5 107.3 16 42.9 5.5 85.5 9.5 128.4 3.3 42.8-6.1 85.8-22.5 128.6-25 42.9-2.5 85.5 8.9 128.4 6.9 42.8-2 85.8-17.4 128.6-22.2 42.9-4.8 85.5 0.8 128.4 9.2 42.8 8.3 85.8 19.3 107.3 24.8l21.5 5.5v108h-21.5c-21.5 0-64.5 0-107.3 0-42.9 0-85.5 0-128.4 0-42.8 0-85.8 0-128.6 0-42.9 0-85.5 0-128.4 0-42.8 0-85.8 0-128.6 0-42.9 0-85.5 0-128.4 0-42.8 0-85.8 0-107.3 0h-21.5z"/><path class="d" d="m0 140l21.5 2.8c21.5 2.9 64.5 8.5 107.3 12.2 42.9 3.7 85.5 5.3 128.4 0.8 42.8-4.5 85.8-15.1 128.6-19 42.9-3.8 85.5-0.8 128.4 5.2 42.8 6 85.8 15 128.6 10.8 42.9-4.1 85.5-21.5 128.4-23.1 42.8-1.7 85.8 12.3 107.3 19.3l21.5 7v75h-21.5c-21.5 0-64.5 0-107.3 0-42.9 0-85.5 0-128.4 0-42.8 0-85.8 0-128.6 0-42.9 0-85.5 0-128.4 0-42.8 0-85.8 0-128.6 0-42.9 0-85.5 0-128.4 0-42.8 0-85.8 0-107.3 0h-21.5z"/><path class="e" d="m0 197l21.5-0.8c21.5-0.9 64.5-2.5 107.3-9.5 42.9-7 85.5-19.4 128.4-24.4 42.8-5 85.8-2.6 128.6-0.8 42.9 1.8 85.5 3.2 128.4 7.5 42.8 4.3 85.8 11.7 128.6 16.2 42.9 4.5 85.5 6.1 128.4 4.6 42.8-1.5 85.8-6.1 107.3-8.5l21.5-2.3v52h-21.5c-21.5 0-64.5 0-107.3 0-42.9 0-85.5 0-128.4 0-42.8 0-85.8 0-128.6 0-42.9 0-85.5 0-128.4 0-42.8 0-85.8 0-128.6 0-42.9 0-85.5 0-128.4 0-42.8 0-85.8 0-107.3 0h-21.5z"/></svg>