<svg id="visual" viewBox="0 0 900 600" width="900" height="600" xmlns="http://www.w3.org/2000/svg" xmlns:xlink="http://www.w3.org/1999/xlink" version="1.1"><path d="M0 390L21.5 395.5C43 401 86 412 128.8 413.5C171.7 415 214.3 407 257.2 403.8C300 400.7 343 402.3 385.8 408.3C428.7 414.3 471.3 424.7 514.2 427.7C557 430.7 600 426.3 642.8 412.8C685.7 399.3 728.3 376.7 771.2 372C814 367.3 857 380.7 878.5 387.3L900 394L900 601L878.5 601C857 601 814 601 771.2 601C728.3 601 685.7 601 642.8 601C600 601 557 601 514.2 601C471.3 601 428.7 601 385.8 601C343 601 300 601 257.2 601C214.3 601 171.7 601 128.8 601C86 601 43 601 21.5 601L0 601Z" fill="#4facf7"></path><path d="M0 394L21.5 399.8C43 405.7 86 417.3 128.8 425.2C171.7 433 214.3 437 257.2 436.8C300 436.7 343 432.3 385.8 436C428.7 439.7 471.3 451.3 514.2 456.2C557 461 600 459 642.8 448.5C685.7 438 728.3 419 771.2 409.3C814 399.7 857 399.3 878.5 399.2L900 399L900 601L878.5 601C857 601 814 601 771.2 601C728.3 601 685.7 601 642.8 601C600 601 557 601 514.2 601C471.3 601 428.7 601 385.8 601C343 601 300 601 257.2 601C214.3 601 171.7 601 128.8 601C86 601 43 601 21.5 601L0 601Z" fill="#2b9dfc"></path><path d="M0 471L21.5 474.5C43 478 86 485 128.8 490.5C171.7 496 214.3 500 257.2 493.8C300 487.7 343 471.3 385.8 468.8C428.7 466.3 471.3 477.7 514.2 475.7C557 473.7 600 458.3 642.8 453.5C685.7 448.7 728.3 454.3 771.2 462.7C814 471 857 482 878.5 487.5L900 493L900 601L878.5 601C857 601 814 601 771.2 601C728.3 601 685.7 601 642.8 601C600 601 557 601 514.2 601C471.3 601 428.7 601 385.8 601C343 601 300 601 257.2 601C214.3 601 171.7 601 128.8 601C86 601 43 601 21.5 601L0 601Z" fill="#008cff"></path><path d="M0 510L21.5 512.8C43 515.7 86 521.3 128.8 525C171.7 528.7 214.3 530.3 257.2 525.8C300 521.3 343 510.7 385.8 506.8C428.7 503 471.3 506 514.2 512C557 518 600 527 642.8 522.8C685.7 518.7 728.3 501.3 771.2 499.7C814 498 857 512 878.5 519L900 526L900 601L878.5 601C857 601 814 601 771.2 601C728.3 601 685.7 601 642.8 601C600 601 557 601 514.2 601C471.3 601 428.7 601 385.8 601C343 601 300 601 257.2 601C214.3 601 171.7 601 128.8 601C86 601 43 601 21.5 601L0 601Z" fill="#007aff"></path><path d="M0 567L21.5 566.2C43 565.3 86 563.7 128.8 556.7C171.7 549.7 214.3 537.3 257.2 532.3C300 527.3 343 529.7 385.8 531.5C428.7 533.3 471.3 534.7 514.2 539C557 543.3 600 550.7 642.8 555.2C685.7 559.7 728.3 561.3 771.2 559.8C814 558.3 857 553.7 878.5 551.3L900 549L900 601L878.5 601C857 601 814 601 771.2 601C728.3 601 685.7 601 642.8 601C600 601 557 601 514.2 601C471.3 601 428.7 601 385.8 601C343 601 300 601 257.2 601C214.3 601 171.7 601 128.8 601C86 601 43 601 21.5 601L0 601Z" fill="#0066ff"></path></svg>